<svg width="35" height="35" viewBox="0 0 35 35" fill="none" xmlns="http://www.w3.org/2000/svg">
<path d="M29.1667 10.9831C28.316 11.3628 27.3969 11.6211 26.4095 11.7578C27.4425 11.1502 28.1489 10.2615 28.5286 9.0918C27.5412 9.66905 26.5234 10.0564 25.4753 10.2539C24.5486 9.2513 23.3865 8.75 21.9889 8.75C20.6673 8.75 19.5394 9.21712 18.6051 10.1514C17.6709 11.0856 17.2038 12.2135 17.2038 13.5352C17.2038 13.9757 17.2418 14.3403 17.3177 14.6289C15.3581 14.5226 13.52 14.0289 11.8034 13.1478C10.0868 12.2667 8.62847 11.0894 7.42839 9.61589C6.98785 10.3754 6.76758 11.1806 6.76758 12.0312C6.76758 13.763 7.45877 15.0922 8.84115 16.0189C8.12717 16.0037 7.36762 15.8062 6.5625 15.4264V15.472C6.5625 16.6113 6.94227 17.6253 7.70182 18.514C8.46137 19.4027 9.39562 19.9533 10.5046 20.166C10.064 20.2875 9.67665 20.3483 9.34245 20.3483C9.14497 20.3483 8.84874 20.3179 8.45378 20.2572C8.77279 21.2142 9.33865 22.0041 10.1514 22.627C10.9641 23.2498 11.8869 23.5688 12.9199 23.584C11.1578 24.9512 9.17535 25.6348 6.97266 25.6348C6.57769 25.6348 6.19792 25.612 5.83333 25.5664C8.0816 26.9944 10.5273 27.7083 13.1706 27.7083C14.872 27.7083 16.467 27.4387 17.9557 26.8994C19.4444 26.3601 20.7205 25.6386 21.7839 24.7347C22.8472 23.8308 23.7625 22.7903 24.5296 21.613C25.2968 20.4357 25.8664 19.2052 26.2386 17.9216C26.6108 16.6379 26.7969 15.3581 26.7969 14.082C26.7969 13.8086 26.7893 13.6035 26.7741 13.4668C27.7311 12.7832 28.5286 11.9553 29.1667 10.9831ZM35 6.5625V28.4375C35 30.2452 34.3582 31.7909 33.0745 33.0745C31.7909 34.3582 30.2452 35 28.4375 35H6.5625C4.75477 35 3.20909 34.3582 1.92546 33.0745C0.641819 31.7909 0 30.2452 0 28.4375V6.5625C0 4.75477 0.641819 3.20909 1.92546 1.92546C3.20909 0.641819 4.75477 0 6.5625 0H28.4375C30.2452 0 31.7909 0.641819 33.0745 1.92546C34.3582 3.20909 35 4.75477 35 6.5625Z" fill="white"/>
</svg>
