<svg width="35" height="35" viewBox="0 0 35 35" fill="none" xmlns="http://www.w3.org/2000/svg">
<path d="M35 7.9625C34.9803 7.2075 34.9219 6.45401 34.825 5.705C34.6943 5.04897 34.4766 4.41334 34.1775 3.815C33.8647 3.16593 33.4446 2.5743 32.935 2.065C32.4207 1.56136 31.8301 1.14203 31.185 0.8225C30.5859 0.529278 29.9502 0.317404 29.295 0.1925C28.5531 0.0813739 27.805 0.0170802 27.055 0H7.9625C7.2075 0.0196637 6.45401 0.0780737 5.705 0.175C5.04897 0.30567 4.41334 0.523431 3.815 0.8225C3.16593 1.13529 2.5743 1.55535 2.065 2.065C1.56136 2.57934 1.14203 3.16994 0.8225 3.815C0.529278 4.41414 0.317404 5.04976 0.1925 5.705C0.0813739 6.44689 0.0170802 7.19503 0 7.945V27.0375C0.0196637 27.7925 0.0780737 28.546 0.175 29.295C0.30567 29.951 0.523431 30.5867 0.8225 31.185C1.13529 31.8341 1.55535 32.4257 2.065 32.935C2.57934 33.4386 3.16994 33.858 3.815 34.1775C4.41414 34.4707 5.04976 34.6826 5.705 34.8075C6.44689 34.9186 7.19503 34.9829 7.945 35H27.0375C27.7925 34.9803 28.546 34.9219 29.295 34.825C29.951 34.6943 30.5867 34.4766 31.185 34.1775C31.8341 33.8647 32.4257 33.4446 32.935 32.935C33.4386 32.4207 33.858 31.8301 34.1775 31.185C34.4707 30.5859 34.6826 29.9502 34.8075 29.295C34.9186 28.5531 34.9829 27.805 35 27.055V8.89V7.9625ZM17.9025 29.75C15.8009 29.7396 13.736 29.1978 11.9 28.175L5.25 29.925L7 23.415C5.87145 21.5188 5.26748 19.3566 5.25 17.15C5.25697 14.6701 5.9976 12.2478 7.37863 10.188C8.75965 8.12822 10.7193 6.52318 13.0108 5.575C15.3022 4.62683 17.823 4.37792 20.2557 4.85964C22.6884 5.34136 24.9241 6.53216 26.6813 8.28206C28.4384 10.032 29.6385 12.2627 30.1304 14.6933C30.6222 17.124 30.3838 19.6458 29.4451 21.9412C28.5065 24.2366 26.9096 26.2029 24.8556 27.5924C22.8016 28.982 20.3823 29.7327 17.9025 29.75ZM17.9025 6.7725C16.0472 6.79373 14.2306 7.30622 12.6377 8.25779C11.0449 9.20936 9.73259 10.566 8.83452 12.1897C7.93645 13.8133 7.48466 15.6459 7.52515 17.5009C7.56563 19.3559 8.09695 21.1671 9.065 22.75L9.31 23.1525L8.26 26.985L12.25 25.9L12.635 26.1275C14.2268 27.0651 16.0377 27.5661 17.885 27.58C20.6698 27.58 23.3405 26.4738 25.3096 24.5046C27.2788 22.5355 28.385 19.8648 28.385 17.08C28.385 14.2952 27.2788 11.6245 25.3096 9.65538C23.3405 7.68625 20.6698 6.58 17.885 6.58L17.9025 6.7725ZM24.0275 21.6825C23.7983 22.0648 23.4914 22.3948 23.1266 22.651C22.7619 22.9072 22.3474 23.084 21.91 23.17C21.2564 23.2895 20.5836 23.2474 19.95 23.0475C19.3539 22.8611 18.7695 22.6391 18.2 22.3825C16.0365 21.2969 14.1915 19.6689 12.845 17.6575C12.1133 16.7256 11.6693 15.6005 11.5675 14.42C11.5571 13.9296 11.6498 13.4425 11.8398 12.9903C12.0297 12.5381 12.3126 12.1309 12.67 11.795C12.7753 11.6756 12.9045 11.5797 13.0491 11.5134C13.1938 11.447 13.3508 11.4118 13.51 11.41H14C14.1925 11.41 14.455 11.41 14.7 11.9525C14.945 12.495 15.5925 14.1225 15.68 14.28C15.723 14.364 15.7454 14.4569 15.7454 14.5512C15.7454 14.6456 15.723 14.7385 15.68 14.8225C15.6026 15.0127 15.4964 15.1898 15.365 15.3475C15.2075 15.54 15.0325 15.7675 14.8925 15.9075C14.7525 16.0475 14.5775 16.2225 14.7525 16.5375C15.2287 17.3411 15.818 18.0719 16.5025 18.7075C17.2479 19.3661 18.1001 19.8928 19.0225 20.265C19.3375 20.4225 19.53 20.405 19.705 20.265C19.88 20.125 20.4925 19.355 20.7025 19.04C20.9125 18.725 21.1225 18.7775 21.4025 18.8825C21.6825 18.9875 23.24 19.74 23.555 19.8975C23.87 20.055 24.0625 20.125 24.15 20.265C24.2259 20.723 24.1837 21.1928 24.0275 21.63V21.6825Z" fill="white"/>
</svg>
